<svg width="24" height="24" viewBox="0 0 24 24" fill="none" xmlns="http://www.w3.org/2000/svg">
  <circle cx="12" cy="12" r="11" fill="#2775CA"/>
  <path d="M12.944 7.278c-2.778 0-4.111 1.5-4.111 3.222s1.333 3.222 4.111 3.222c2.778 0 4.111-1.5 4.111-3.222s-1.333-3.222-4.111-3.222zm0 5.389c-2 0-2.944-.944-2.944-2.167s.944-2.167 2.944-2.167 2.944.944 2.944 2.167-.944 2.167-2.944 2.167z" fill="#ffffff"/>
  <path d="M11.833 6v1.167h2.222V6h1.167v1.167h.833v1.166h-.833v5.389h.833v1.167h-.833v1.167h-1.167V15.89h-2.222V17.056H10.667V15.89h-.833v-1.167h.833V9.333h-.833V8.167h.833V6h1.167z" fill="#ffffff"/>
</svg>